<?xml version="1.0"?>
<svg xmlns="http://www.w3.org/2000/svg" xmlns:xlink="http://www.w3.org/1999/xlink" xmlns:ev="http://www.w3.org/2001/xml-events" version="1.1" baseProfile="full" viewBox="13.5 13.5 410 407">
	<g>
		<g>
			<polygon points="91.5 404.5 92.8238 407.295 91.3529 407.589 " stroke="#000000" />
			<path fill="none" d=" M94,417 L91.5,404.5" stroke="#000000" />
		</g>
		<g>
			<polygon points="111.5 409.125 109.072 411.04 108.456 409.672 " stroke="#000000" />
			<path fill="none" d=" M94,417 L111.5,409.125" stroke="#000000" />
		</g>
		<g>
			<polygon points="19.5588 31.5 18.2989 28.676 19.7761 28.4153 " stroke="#000000" />
			<path fill="none" d=" M17,17 L19.5588,31.5" stroke="#000000" />
		</g>
		<g>
			<polygon points="29.5 21.1667 26.4168 20.9295 26.8911 19.5065 " stroke="#000000" />
			<path fill="none" d=" M17,17 L29.5,21.1667" stroke="#000000" />
		</g>
		<g>
			<polygon points="408.912 151.5 410.138 148.661 411.33 149.573 " stroke="#000000" />
			<path fill="none" d=" M420,137 L408.912,151.5" stroke="#000000" />
		</g>
		<g>
			<polygon points="407.5 133.667 410.592 133.715 410.205 135.164 " stroke="#000000" />
			<path fill="none" d=" M420,137 L407.5,133.667" stroke="#000000" />
		</g>
		<g>
			<polygon points="64 249.5 63.25 246.5 64.75 246.5 " stroke="#000000" />
			<path fill="none" d=" M64,222 L64,246.5" stroke="#000000" />
		</g>
		<g>
			<polygon points="78.2609 242.5 75.932 240.466 77.1634 239.609 " stroke="#000000" />
			<path fill="none" d=" M64,222 L78.2609,242.5" stroke="#000000" />
		</g>
		<g>
			<polygon points="54.8929 196.5 56.6082 199.073 55.1956 199.577 " stroke="#000000" />
			<path fill="none" d=" M64,222 L54.8929,196.5" stroke="#000000" />
		</g>
		<g>
			<polygon points="69.4828 195.5 69.6094 198.59 68.1405 198.286 " stroke="#000000" />
			<path fill="none" d=" M64,222 L69.4828,195.5" stroke="#000000" />
		</g>
		<g>
			<polygon points="244.957 306.5 246.215 303.675 247.396 304.6 " stroke="#000000" />
			<path fill="none" d=" M261,286 L244.957,306.5" stroke="#000000" />
		</g>
		<g>
			<polygon points="237.5 293.231 240.147 291.632 240.588 293.065 " stroke="#000000" />
			<path fill="none" d=" M261,286 L237.5,293.231" stroke="#000000" />
		</g>
		<g>
			<polygon points="284.5 273.346 282.214 275.429 281.503 274.108 " stroke="#000000" />
			<path fill="none" d=" M261,286 L284.5,273.346" stroke="#000000" />
		</g>
		<g>
			<polygon points="273.654 262.5 272.892 265.497 271.571 264.786 " stroke="#000000" />
			<path fill="none" d=" M261,286 L273.654,262.5" stroke="#000000" />
		</g>
		<g>
			<polygon points="196.5 69.1607 199.537 69.7438 198.905 71.1043 " stroke="#000000" />
			<path fill="none" d=" M222,81 L196.5,69.1607" stroke="#000000" />
		</g>
		<g>
			<polygon points="196.5 81.9107 199.471 81.0541 199.525 82.5532 " stroke="#000000" />
			<path fill="none" d=" M222,81 L196.5,81.9107" stroke="#000000" />
		</g>
		<g>
			<polygon points="251.5 86.5312 248.413 86.7155 248.69 85.2412 " stroke="#000000" />
			<path fill="none" d=" M222,81 L251.5,86.5312" stroke="#000000" />
		</g>
		<g>
			<polygon points="242.5 97.0435 239.675 95.7852 240.6 94.6039 " stroke="#000000" />
			<path fill="none" d=" M222,81 L242.5,97.0435" stroke="#000000" />
		</g>
		<g>
			<polygon points="81.7917 359.5 80.7951 356.573 82.2899 356.448 " stroke="#000000" />
			<path fill="none" d=" M80,338 L81.7917,359.5" stroke="#000000" />
		</g>
		<g>
			<polygon points="97.5 353.75 94.7684 352.301 95.7718 351.186 " stroke="#000000" />
			<path fill="none" d=" M80,338 L97.5,353.75" stroke="#000000" />
		</g>
		<g>
			<polygon points="71.8654 314.5 73.5555 317.09 72.138 317.58 " stroke="#000000" />
			<path fill="none" d=" M80,338 L71.8654,314.5" stroke="#000000" />
		</g>
		<g>
			<polygon points="78.2632 321.5 79.3231 324.405 77.8313 324.562 " stroke="#000000" />
			<path fill="none" d=" M80,338 L78.2632,321.5" stroke="#000000" />
		</g>
		<g>
			<polygon points="161.5 379.763 163.236 377.204 164.236 378.322 " stroke="#000000" />
			<path fill="none" d=" M178,365 L161.5,379.763" stroke="#000000" />
		</g>
		<g>
			<polygon points="153.5 369.537 156.313 368.253 156.586 369.728 " stroke="#000000" />
			<path fill="none" d=" M178,365 L153.5,369.537" stroke="#000000" />
		</g>
		<g>
			<polygon points="201.5 350.538 199.338 352.749 198.552 351.472 " stroke="#000000" />
			<path fill="none" d=" M178,365 L201.5,350.538" stroke="#000000" />
		</g>
		<g>
			<polygon points="188 352.5 186.712 355.311 185.54 354.374 " stroke="#000000" />
			<path fill="none" d=" M178,365 L188,352.5" stroke="#000000" />
		</g>
		<g>
			<polygon points="124.5 283.6 127.431 284.585 126.623 285.849 " stroke="#000000" />
			<path fill="none" d=" M147,298 L124.5,283.6" stroke="#000000" />
		</g>
		<g>
			<polygon points="122.5 300.722 125.399 299.646 125.564 301.136 " stroke="#000000" />
			<path fill="none" d=" M147,298 L122.5,300.722" stroke="#000000" />
		</g>
		<g>
			<polygon points="173.5 298.914 170.476 299.56 170.528 298.061 " stroke="#000000" />
			<path fill="none" d=" M147,298 L173.5,298.914" stroke="#000000" />
		</g>
		<g>
			<polygon points="164.5 312.875 161.728 311.504 162.7 310.361 " stroke="#000000" />
			<path fill="none" d=" M147,298 L164.5,312.875" stroke="#000000" />
		</g>
		<g>
			<polygon points="90.4444 399.5 89.0615 396.734 90.5258 396.409 " stroke="#000000" />
			<path fill="none" d=" M87,384 L90.4444,399.5" stroke="#000000" />
		</g>
		<g>
			<polygon points="105.5 395.452 102.554 394.511 103.344 393.236 " stroke="#000000" />
			<path fill="none" d=" M87,384 L105.5,395.452" stroke="#000000" />
		</g>
		<g>
			<polygon points="82.5682 364.5 83.9644 367.259 82.5017 367.592 " stroke="#000000" />
			<path fill="none" d=" M87,384 L82.5682,364.5" stroke="#000000" />
		</g>
		<g>
			<polygon points="98.5 374.143 96.7103 376.665 95.7341 375.526 " stroke="#000000" />
			<path fill="none" d=" M87,384 L98.5,374.143" stroke="#000000" />
		</g>
		<g>
			<polygon points="116.5 406.5 118.687 404.313 119.458 405.6 " stroke="#000000" />
			<path fill="none" d=" M134,396 L116.5,406.5" stroke="#000000" />
		</g>
		<g>
			<polygon points="110.5 396.904 113.469 396.039 113.527 397.538 " stroke="#000000" />
			<path fill="none" d=" M134,396 L110.5,396.904" stroke="#000000" />
		</g>
		<g>
			<polygon points="156.5 383.4 154.249 385.52 153.516 384.211 " stroke="#000000" />
			<path fill="none" d=" M134,396 L156.5,383.4" stroke="#000000" />
		</g>
		<g>
			<polygon points="138.846 385.5 138.27 388.538 136.908 387.91 " stroke="#000000" />
			<path fill="none" d=" M134,396 L138.846,385.5" stroke="#000000" />
		</g>
		<g>
			<polygon points="102.5 357.63 105.423 358.641 104.603 359.897 " stroke="#000000" />
			<path fill="none" d=" M123,371 L102.5,357.63" stroke="#000000" />
		</g>
		<g>
			<polygon points="103.5 371.886 106.463 371.001 106.531 372.499 " stroke="#000000" />
			<path fill="none" d=" M123,371 L103.5,371.886" stroke="#000000" />
		</g>
		<g>
			<polygon points="148.5 370.089 145.529 370.946 145.475 369.447 " stroke="#000000" />
			<path fill="none" d=" M123,371 L148.5,370.089" stroke="#000000" />
		</g>
		<g>
			<polygon points="137.5 381.235 134.617 380.118 135.482 378.893 " stroke="#000000" />
			<path fill="none" d=" M123,371 L137.5,381.235" stroke="#000000" />
		</g>
		<g>
			<polygon points="111.5 407.348 108.408 407.316 108.786 405.865 " stroke="#000000" />
			<path fill="none" d=" M91,402 L111.5,407.348" stroke="#000000" />
		</g>
		<g>
			<polygon points="105.5 397.735 102.834 399.301 102.41 397.862 " stroke="#000000" />
			<path fill="none" d=" M91,402 L105.5,397.735" stroke="#000000" />
		</g>
		<g>
			<polygon points="109.364 399.5 111.459 401.775 110.142 402.493 " stroke="#000000" />
			<path fill="none" d=" M114,408 L109.364,399.5" stroke="#000000" />
		</g>
		<g>
			<polygon points="97.5 356.833 94.8911 358.494 94.4168 357.071 " stroke="#000000" />
			<path fill="none" d=" M82,362 L97.5,356.833" stroke="#000000" />
		</g>
		<g>
			<polygon points="98.5 370.684 95.4959 369.951 96.1946 368.623 " stroke="#000000" />
			<path fill="none" d=" M82,362 L98.5,370.684" stroke="#000000" />
		</g>
		<g>
			<polygon points="100.844 369.5 99.9081 366.553 101.405 366.459 " stroke="#000000" />
			<path fill="none" d=" M100,356 L100.844,369.5" stroke="#000000" />
		</g>
		<g>
			<polygon points="152.667 372.5 154.955 374.58 153.707 375.412 " stroke="#000000" />
			<path fill="none" d=" M159,382 L152.667,372.5" stroke="#000000" />
		</g>
		<g>
			<polygon points="142.5 382.868 145.456 381.962 145.535 383.46 " stroke="#000000" />
			<path fill="none" d=" M159,382 L142.5,382.868" stroke="#000000" />
		</g>
		<g>
			<polygon points="142.115 380.5 143.481 377.725 144.626 378.694 " stroke="#000000" />
			<path fill="none" d=" M151,370 L142.115,380.5" stroke="#000000" />
		</g>
		<g>
			<polygon points="64.2419 254.5 65.2774 257.414 63.7844 257.558 " stroke="#000000" />
			<path fill="none" d=" M67,283 L64.2419,254.5" stroke="#000000" />
		</g>
		<g>
			<polygon points="73.8235 268.5 73.2248 271.534 71.8675 270.895 " stroke="#000000" />
			<path fill="none" d=" M67,283 L73.8235,268.5" stroke="#000000" />
		</g>
		<g>
			<polygon points="70.6552 309.5 69.5023 306.631 70.9882 306.426 " stroke="#000000" />
			<path fill="none" d=" M67,283 L70.6552,309.5" stroke="#000000" />
		</g>
		<g>
			<polygon points="72.1667 298.5 70.5065 295.891 71.9295 295.417 " stroke="#000000" />
			<path fill="none" d=" M67,283 L72.1667,298.5" stroke="#000000" />
		</g>
		<g>
			<polygon points="82.0455 247.5 84.5256 249.347 83.3647 250.297 " stroke="#000000" />
			<path fill="none" d=" M98,267 L82.0455,247.5" stroke="#000000" />
		</g>
		<g>
			<polygon points="77.5 266.109 80.5297 265.49 80.4646 266.988 " stroke="#000000" />
			<path fill="none" d=" M98,267 L77.5,266.109" stroke="#000000" />
		</g>
		<g>
			<polygon points="119.5 280.438 116.559 279.484 117.354 278.212 " stroke="#000000" />
			<path fill="none" d=" M98,267 L119.5,280.438" stroke="#000000" />
		</g>
		<g>
			<polygon points="103.286 285.5 101.74 282.821 103.183 282.409 " stroke="#000000" />
			<path fill="none" d=" M98,267 L103.286,285.5" stroke="#000000" />
		</g>
		<g>
			<polygon points="80.5 317.088 82.4275 314.67 83.3387 315.862 " stroke="#000000" />
			<path fill="none" d=" M95,306 L80.5,317.088" stroke="#000000" />
		</g>
		<g>
			<polygon points="75.5 301.568 78.5916 301.502 78.2592 302.964 " stroke="#000000" />
			<path fill="none" d=" M95,306 L75.5,301.568" stroke="#000000" />
		</g>
		<g>
			<polygon points="117.5 301.5 114.705 302.824 114.411 301.353 " stroke="#000000" />
			<path fill="none" d=" M95,306 L117.5,301.5" stroke="#000000" />
		</g>
		<g>
			<polygon points="102.75 290.5 102.079 293.519 100.738 292.848 " stroke="#000000" />
			<path fill="none" d=" M95,306 L102.75,290.5" stroke="#000000" />
		</g>
		<g>
			<polygon points="77.5 246.094 75.0521 247.983 74.4509 246.609 " stroke="#000000" />
			<path fill="none" d=" M64,252 L77.5,246.094" stroke="#000000" />
		</g>
		<g>
			<polygon points="73.0357 263.5 70.5925 261.604 71.772 260.678 " stroke="#000000" />
			<path fill="none" d=" M64,252 L73.0357,263.5" stroke="#000000" />
		</g>
		<g>
			<polygon points="75.5952 263.5 75.5605 260.408 77.0197 260.755 " stroke="#000000" />
			<path fill="none" d=" M80,245 L75.5952,263.5" stroke="#000000" />
		</g>
		<g>
			<polygon points="75.5 316.5 72.8483 314.909 73.909 313.848 " stroke="#000000" />
			<path fill="none" d=" M71,312 L75.5,316.5" stroke="#000000" />
		</g>
		<g>
			<polygon points="72.5455 303.5 72.7467 306.586 71.2709 306.317 " stroke="#000000" />
			<path fill="none" d=" M71,312 L72.5455,303.5" stroke="#000000" />
		</g>
		<g>
			<polygon points="73.6944 303.5 75.22 306.19 73.7747 306.591 " stroke="#000000" />
			<path fill="none" d=" M78,319 L73.6944,303.5" stroke="#000000" />
		</g>
		<g>
			<polygon points="120.263 298.5 119.831 295.438 121.323 295.595 " stroke="#000000" />
			<path fill="none" d=" M122,282 L120.263,298.5" stroke="#000000" />
		</g>
		<g>
			<polygon points="106.5 287.167 109.109 285.506 109.583 286.929 " stroke="#000000" />
			<path fill="none" d=" M122,282 L106.5,287.167" stroke="#000000" />
		</g>
		<g>
			<polygon points="106.5 290.031 109.301 291.341 108.355 292.505 " stroke="#000000" />
			<path fill="none" d=" M120,301 L106.5,290.031" stroke="#000000" />
		</g>
		<g>
			<polygon points="240.619 311.5 239.093 314.19 238.007 313.155 " stroke="#000000" />
			<path fill="none" d=" M223,330 L240.619,311.5" stroke="#000000" />
		</g>
		<g>
			<polygon points="224.722 314.5 225.136 317.564 223.646 317.399 " stroke="#000000" />
			<path fill="none" d=" M223,330 L224.722,314.5" stroke="#000000" />
		</g>
		<g>
			<polygon points="206.5 346.5 208.091 343.848 209.152 344.909 " stroke="#000000" />
			<path fill="none" d=" M223,330 L206.5,346.5" stroke="#000000" />
		</g>
		<g>
			<polygon points="210.5 339.167 212.476 336.788 213.363 337.997 " stroke="#000000" />
			<path fill="none" d=" M223,330 L210.5,339.167" stroke="#000000" />
		</g>
		<g>
			<polygon points="232.5 294.625 229.771 296.08 229.408 294.625 " stroke="#000000" />
			<path fill="none" d=" M207,301 L232.5,294.625" stroke="#000000" />
		</g>
		<g>
			<polygon points="222.5 310.472 219.549 309.548 220.331 308.268 " stroke="#000000" />
			<path fill="none" d=" M207,301 L222.5,310.472" stroke="#000000" />
		</g>
		<g>
			<polygon points="178.5 299.161 181.542 298.606 181.445 300.103 " stroke="#000000" />
			<path fill="none" d=" M207,301 L178.5,299.161" stroke="#000000" />
		</g>
		<g>
			<polygon points="191.5 311.333 193.58 309.045 194.412 310.293 " stroke="#000000" />
			<path fill="none" d=" M207,301 L191.5,311.333" stroke="#000000" />
		</g>
		<g>
			<polygon points="189.444 347.5 188.062 344.734 189.526 344.409 " stroke="#000000" />
			<path fill="none" d=" M186,332 L189.444,347.5" stroke="#000000" />
		</g>
		<g>
			<polygon points="205.5 339.977 202.439 339.536 203.007 338.147 " stroke="#000000" />
			<path fill="none" d=" M186,332 L205.5,339.977" stroke="#000000" />
		</g>
		<g>
			<polygon points="169.5 317.237 172.236 318.678 171.236 319.796 " stroke="#000000" />
			<path fill="none" d=" M186,332 L169.5,317.237" stroke="#000000" />
		</g>
		<g>
			<polygon points="188.605 315.5 188.878 318.58 187.397 318.346 " stroke="#000000" />
			<path fill="none" d=" M186,332 L188.605,315.5" stroke="#000000" />
		</g>
		<g>
			<polygon points="236.333 296.5 238.407 298.794 237.083 299.5 " stroke="#000000" />
			<path fill="none" d=" M243,309 L236.333,296.5" stroke="#000000" />
		</g>
		<g>
			<polygon points="227.5 311.583 230.336 310.35 230.582 311.83 " stroke="#000000" />
			<path fill="none" d=" M243,309 L227.5,311.583" stroke="#000000" />
		</g>
		<g>
			<polygon points="226.389 309.5 227.19 306.513 228.501 307.242 " stroke="#000000" />
			<path fill="none" d=" M235,294 L226.389,309.5" stroke="#000000" />
		</g>
		<g>
			<polygon points="192.5 349.821 195.439 348.86 195.546 350.356 " stroke="#000000" />
			<path fill="none" d=" M204,349 L192.5,349.821" stroke="#000000" />
		</g>
		<g>
			<polygon points="206.75 343.5 206.079 346.519 204.738 345.848 " stroke="#000000" />
			<path fill="none" d=" M204,349 L206.75,343.5" stroke="#000000" />
		</g>
		<g>
			<polygon points="205.5 342.25 203.152 344.262 202.481 342.921 " stroke="#000000" />
			<path fill="none" d=" M190,350 L205.5,342.25" stroke="#000000" />
		</g>
		<g>
			<polygon points="168.406 312.5 169.223 309.518 170.531 310.253 " stroke="#000000" />
			<path fill="none" d=" M176,299 L168.406,312.5" stroke="#000000" />
		</g>
		<g>
			<polygon points="186.679 310.5 184.088 308.812 185.187 307.791 " stroke="#000000" />
			<path fill="none" d=" M176,299 L186.679,310.5" stroke="#000000" />
		</g>
		<g>
			<polygon points="186.5 313.227 183.58 314.246 183.444 312.752 " stroke="#000000" />
			<path fill="none" d=" M167,315 L186.5,313.227" stroke="#000000" />
		</g>
		<g>
			<polygon points="29.7 82.5 31.2311 85.1867 29.7867 85.5911 " stroke="#000000" />
			<path fill="none" d=" M36,105 L29.7,82.5" stroke="#000000" />
		</g>
		<g>
			<polygon points="42.3269 81.5 42.2712 84.5918 40.8228 84.2019 " stroke="#000000" />
			<path fill="none" d=" M36,105 L42.3269,81.5" stroke="#000000" />
		</g>
		<g>
			<polygon points="38.75 132.5 37.7052 129.59 39.1978 129.44 " stroke="#000000" />
			<path fill="none" d=" M36,105 L38.75,132.5" stroke="#000000" />
		</g>
		<g>
			<polygon points="43.5938 118.5 41.4693 116.253 42.7766 115.518 " stroke="#000000" />
			<path fill="none" d=" M36,105 L43.5938,118.5" stroke="#000000" />
		</g>
		<g>
			<polygon points="79.5 32.8654 82.5803 33.138 82.0896 34.5555 " stroke="#000000" />
			<path fill="none" d=" M103,41 L79.5,32.8654" stroke="#000000" />
		</g>
		<g>
			<polygon points="80.5 44.6 83.3438 43.3854 83.5808 44.8666 " stroke="#000000" />
			<path fill="none" d=" M103,41 L80.5,44.6" stroke="#000000" />
		</g>
		<g>
			<polygon points="131.5 46.5161 128.412 46.6824 128.697 45.2097 " stroke="#000000" />
			<path fill="none" d=" M103,41 L131.5,46.5161" stroke="#000000" />
		</g>
		<g>
			<polygon points="117.5 47.8235 114.466 47.2248 115.105 45.8675 " stroke="#000000" />
			<path fill="none" d=" M103,41 L117.5,47.8235" stroke="#000000" />
		</g>
		<g>
			<polygon points="96.875 138.5 98.075 135.65 99.275 136.55 " stroke="#000000" />
			<path fill="none" d=" M113,117 L96.875,138.5" stroke="#000000" />
		</g>
		<g>
			<polygon points="90.5 123.3 93.1867 121.769 93.5911 123.213 " stroke="#000000" />
			<path fill="none" d=" M113,117 L90.5,123.3" stroke="#000000" />
		</g>
		<g>
			<polygon points="137.5 103.389 135.242 105.501 134.513 104.19 " stroke="#000000" />
			<path fill="none" d=" M113,117 L137.5,103.389" stroke="#000000" />
		</g>
		<g>
			<polygon points="122 94.5 121.582 97.564 120.189 97.0069 " stroke="#000000" />
			<path fill="none" d=" M113,117 L122,94.5" stroke="#000000" />
		</g>
		<g>
			<polygon points="20.625 36.5 22.0802 39.2285 20.625 39.5923 " stroke="#000000" />
			<path fill="none" d=" M25,54 L20.625,36.5" stroke="#000000" />
		</g>
		<g>
			<polygon points="31.1667 35.5 30.9295 38.5832 29.5065 38.1089 " stroke="#000000" />
			<path fill="none" d=" M25,54 L31.1667,35.5" stroke="#000000" />
		</g>
		<g>
			<polygon points="28.6154 77.5 27.4179 74.6489 28.9005 74.4208 " stroke="#000000" />
			<path fill="none" d=" M25,54 L28.6154,77.5" stroke="#000000" />
		</g>
		<g>
			<polygon points="33.5 59.4091 30.5664 58.4312 31.3717 57.1657 " stroke="#000000" />
			<path fill="none" d=" M25,54 L33.5,59.4091" stroke="#000000" />
		</g>
		<g>
			<polygon points="34.5 22.625 37.5923 22.625 37.2285 24.0802 " stroke="#000000" />
			<path fill="none" d=" M52,27 L34.5,22.625" stroke="#000000" />
		</g>
		<g>
			<polygon points="34.5 32.25 37.158 30.6696 37.589 32.1063 " stroke="#000000" />
			<path fill="none" d=" M52,27 L34.5,32.25" stroke="#000000" />
		</g>
		<g>
			<polygon points="74.5 31.5 71.4112 31.6471 71.7053 30.1762 " stroke="#000000" />
			<path fill="none" d=" M52,27 L74.5,31.5" stroke="#000000" />
		</g>
		<g>
			<polygon points="57.25 34.5 54.9152 32.4724 56.144 31.6122 " stroke="#000000" />
			<path fill="none" d=" M52,27 L57.25,34.5" stroke="#000000" />
		</g>
		<g>
			<polygon points="44.3636 76.5 45.1418 73.5072 46.4586 74.2255 " stroke="#000000" />
			<path fill="none" d=" M55,57 L44.3636,76.5" stroke="#000000" />
		</g>
		<g>
			<polygon points="38.5 60.4737 41.2811 59.1217 41.5902 60.5896 " stroke="#000000" />
			<path fill="none" d=" M55,57 L38.5,60.4737" stroke="#000000" />
		</g>
		<g>
			<polygon points="75.5 46.3043 73.1872 48.357 72.4933 47.0271 " stroke="#000000" />
			<path fill="none" d=" M55,57 L75.5,46.3043" stroke="#000000" />
		</g>
		<g>
			<polygon points="58.5 39.5 58.6471 42.5888 57.1762 42.2947 " stroke="#000000" />
			<path fill="none" d=" M55,57 L58.5,39.5" stroke="#000000" />
		</g>
		<g>
			<polygon points="29.5 24.5 27.909 27.1517 26.8483 26.091 " stroke="#000000" />
			<path fill="none" d=" M20,34 L29.5,24.5" stroke="#000000" />
		</g>
		<g>
			<polygon points="29.5 33.2083 26.5726 34.2049 26.4481 32.7101 " stroke="#000000" />
			<path fill="none" d=" M20,34 L29.5,33.2083" stroke="#000000" />
		</g>
		<g>
			<polygon points="32 30.5 31.25 27.5 32.75 27.5 " stroke="#000000" />
			<path fill="none" d=" M32,22 L32,27.5" stroke="#000000" />
		</g>
		<g>
			<polygon points="40.5 79.1786 37.5611 80.1404 37.4542 78.6442 " stroke="#000000" />
			<path fill="none" d=" M29,80 L40.5,79.1786" stroke="#000000" />
		</g>
		<g>
			<polygon points="35.0789 63.5 34.7456 66.5743 33.3381 66.0558 " stroke="#000000" />
			<path fill="none" d=" M29,80 L35.0789,63.5" stroke="#000000" />
		</g>
		<g>
			<polygon points="36.9722 63.5 38.7586 66.0242 37.3606 66.5678 " stroke="#000000" />
			<path fill="none" d=" M43,79 L36.9722,63.5" stroke="#000000" />
		</g>
		<g>
			<polygon points="77.8077 42.5 76.8298 39.5664 78.3254 39.4513 " stroke="#000000" />
			<path fill="none" d=" M77,32 L77.8077,42.5" stroke="#000000" />
		</g>
		<g>
			<polygon points="61.5 36.3056 64.1898 34.78 64.5913 36.2253 " stroke="#000000" />
			<path fill="none" d=" M77,32 L61.5,36.3056" stroke="#000000" />
		</g>
		<g>
			<polygon points="61.5 38.0526 64.5559 38.5256 63.9739 39.908 " stroke="#000000" />
			<path fill="none" d=" M78,45 L61.5,38.0526" stroke="#000000" />
		</g>
		<g>
			<polygon points="53.3103 191.5 51.7896 188.807 53.2356 188.409 " stroke="#000000" />
			<path fill="none" d=" M46,165 L53.3103,191.5" stroke="#000000" />
		</g>
		<g>
			<polygon points="56.5 174.692 53.7869 173.209 54.8043 172.106 " stroke="#000000" />
			<path fill="none" d=" M46,165 L56.5,174.692" stroke="#000000" />
		</g>
		<g>
			<polygon points="39.5833 137.5 40.9954 140.251 39.5346 140.592 " stroke="#000000" />
			<path fill="none" d=" M46,165 L39.5833,137.5" stroke="#000000" />
		</g>
		<g>
			<polygon points="46 146.5 45.25 149.5 46.75 149.5 " stroke="#000000" />
			<path fill="none" d=" M46,165 L46,149.5" stroke="#000000" />
		</g>
		<g>
			<polygon points="70.7407 190.5 70.8739 187.411 72.3121 187.837 " stroke="#000000" />
			<path fill="none" d=" M78,166 L70.7407,190.5" stroke="#000000" />
		</g>
		<g>
			<polygon points="61.5 175.553 63.7205 173.4 64.4721 174.699 " stroke="#000000" />
			<path fill="none" d=" M78,166 L61.5,175.553" stroke="#000000" />
		</g>
		<g>
			<polygon points="93.3 143.5 92.2333 146.403 90.9929 145.559 " stroke="#000000" />
			<path fill="none" d=" M78,166 L93.3,143.5" stroke="#000000" />
		</g>
		<g>
			<polygon points="76.2273 146.5 77.2458 149.42 75.752 149.556 " stroke="#000000" />
			<path fill="none" d=" M78,166 L76.2273,146.5" stroke="#000000" />
		</g>
		<g>
			<polygon points="47.5 121.972 50.5678 122.361 50.0242 123.759 " stroke="#000000" />
			<path fill="none" d=" M63,128 L47.5,121.972" stroke="#000000" />
		</g>
		<g>
			<polygon points="48.5 141.647 50.1706 139.045 51.1986 140.137 " stroke="#000000" />
			<path fill="none" d=" M63,128 L48.5,141.647" stroke="#000000" />
		</g>
		<g>
			<polygon points="85.5 124.4 82.6562 125.615 82.4192 124.133 " stroke="#000000" />
			<path fill="none" d=" M63,128 L85.5,124.4" stroke="#000000" />
		</g>
		<g>
			<polygon points="73.9688 141.5 71.4949 139.645 72.6591 138.699 " stroke="#000000" />
			<path fill="none" d=" M63,128 L73.9688,141.5" stroke="#000000" />
		</g>
		<g>
			<polygon points="67.5 193.156 64.5526 194.092 64.4591 192.595 " stroke="#000000" />
			<path fill="none" d=" M54,194 L67.5,193.156" stroke="#000000" />
		</g>
		<g>
			<polygon points="58.2647 179.5 58.1377 182.59 56.6987 182.166 " stroke="#000000" />
			<path fill="none" d=" M54,194 L58.2647,179.5" stroke="#000000" />
		</g>
		<g>
			<polygon points="60.7188 179.5 63.0364 181.547 61.8003 182.397 " stroke="#000000" />
			<path fill="none" d=" M70,193 L60.7188,179.5" stroke="#000000" />
		</g>
		<g>
			<polygon points="43.9286 123.5 43.4362 126.553 42.0575 125.962 " stroke="#000000" />
			<path fill="none" d=" M39,135 L43.9286,123.5" stroke="#000000" />
		</g>
		<g>
			<polygon points="44.0556 141.5 41.6217 139.592 42.8057 138.671 " stroke="#000000" />
			<path fill="none" d=" M39,135 L44.0556,141.5" stroke="#000000" />
		</g>
		<g>
			<polygon points="45.8913 141.5 45.0117 138.535 46.5103 138.47 " stroke="#000000" />
			<path fill="none" d=" M45,121 L45.8913,141.5" stroke="#000000" />
		</g>
		<g>
			<polygon points="89.0294 126.5 90.8652 128.988 89.4782 129.56 " stroke="#000000" />
			<path fill="none" d=" M95,141 L89.0294,126.5" stroke="#000000" />
		</g>
		<g>
			<polygon points="78.5 143.605 81.3463 142.397 81.5803 143.878 " stroke="#000000" />
			<path fill="none" d=" M95,141 L78.5,143.605" stroke="#000000" />
		</g>
		<g>
			<polygon points="77.5 141.5 78.4004 138.542 79.6866 139.313 " stroke="#000000" />
			<path fill="none" d=" M88,124 L77.5,141.5" stroke="#000000" />
		</g>
		<g>
			<polygon points="191.5 67.0833 188.425 66.7547 188.942 65.3464 " stroke="#000000" />
			<path fill="none" d=" M164,57 L191.5,67.0833" stroke="#000000" />
		</g>
		<g>
			<polygon points="174.5 66.6923 171.787 65.2086 172.804 64.1064 " stroke="#000000" />
			<path fill="none" d=" M164,57 L174.5,66.6923" stroke="#000000" />
		</g>
		<g>
			<polygon points="136.5 47.8333 139.583 48.0705 139.109 49.4935 " stroke="#000000" />
			<path fill="none" d=" M164,57 L136.5,47.8333" stroke="#000000" />
		</g>
		<g>
			<polygon points="145.5 54.3571 148.576 54.0389 148.364 55.5239 " stroke="#000000" />
			<path fill="none" d=" M164,57 L145.5,54.3571" stroke="#000000" />
		</g>
		<g>
			<polygon points="191.5 82.5172 188.714 83.8595 188.41 82.3906 " stroke="#000000" />
			<path fill="none" d=" M165,88 L191.5,82.5172" stroke="#000000" />
		</g>
		<g>
			<polygon points="175.421 71.5 174.453 74.437 173.185 73.636 " stroke="#000000" />
			<path fill="none" d=" M165,88 L175.421,71.5" stroke="#000000" />
		</g>
		<g>
			<polygon points="142.5 100.6 144.751 98.4798 145.484 99.7886 " stroke="#000000" />
			<path fill="none" d=" M165,88 L142.5,100.6" stroke="#000000" />
		</g>
		<g>
			<polygon points="145.5 82.6818 148.592 82.7476 148.197 84.1947 " stroke="#000000" />
			<path fill="none" d=" M165,88 L145.5,82.6818" stroke="#000000" />
		</g>
		<g>
			<polygon points="120.921 51.5 122.662 54.0558 121.254 54.5743 " stroke="#000000" />
			<path fill="none" d=" M127,68 L120.921,51.5" stroke="#000000" />
		</g>
		<g>
			<polygon points="140.5 56.1875 138.736 58.7274 137.748 57.5986 " stroke="#000000" />
			<path fill="none" d=" M127,68 L140.5,56.1875" stroke="#000000" />
		</g>
		<g>
			<polygon points="123.417 89.5 123.17 86.4175 124.65 86.6641 " stroke="#000000" />
			<path fill="none" d=" M127,68 L123.417,89.5" stroke="#000000" />
		</g>
		<g>
			<polygon points="140.5 79.8125 137.748 78.4014 138.736 77.2726 " stroke="#000000" />
			<path fill="none" d=" M127,68 L140.5,79.8125" stroke="#000000" />
		</g>
		<g>
			<polygon points="194 79.5 193.25 76.5 194.75 76.5 " stroke="#000000" />
			<path fill="none" d=" M194,68 L194,76.5" stroke="#000000" />
		</g>
		<g>
			<polygon points="179.5 68.8529 182.451 67.9281 182.539 69.4255 " stroke="#000000" />
			<path fill="none" d=" M194,68 L179.5,68.8529" stroke="#000000" />
		</g>
		<g>
			<polygon points="179.5 70.9118 182.339 72.1383 181.427 73.3299 " stroke="#000000" />
			<path fill="none" d=" M194,82 L179.5,70.9118" stroke="#000000" />
		</g>
		<g>
			<polygon points="122.5 48.6429 125.364 47.4761 125.576 48.9611 " stroke="#000000" />
			<path fill="none" d=" M134,47 L122.5,48.6429" stroke="#000000" />
		</g>
		<g>
			<polygon points="140.5 52.0556 137.671 50.8057 138.592 49.6217 " stroke="#000000" />
			<path fill="none" d=" M134,47 L140.5,52.0556" stroke="#000000" />
		</g>
		<g>
			<polygon points="140.5 53.4565 137.409 53.5521 137.728 52.0864 " stroke="#000000" />
			<path fill="none" d=" M120,49 L140.5,53.4565" stroke="#000000" />
		</g>
		<g>
			<polygon points="125.5 93.4706 128.466 94.3452 127.706 95.6381 " stroke="#000000" />
			<path fill="none" d=" M140,102 L125.5,93.4706" stroke="#000000" />
		</g>
		<g>
			<polygon points="142.625 84.5 142.922 87.5781 141.438 87.3556 " stroke="#000000" />
			<path fill="none" d=" M140,102 L142.625,84.5" stroke="#000000" />
		</g>
		<g>
			<polygon points="140.5 83.25 138.152 85.2625 137.481 83.9208 " stroke="#000000" />
			<path fill="none" d=" M123,92 L140.5,83.25" stroke="#000000" />
		</g>
		<g>
			<polygon points="371.5 196.25 369.772 198.814 368.768 197.699 " stroke="#000000" />
			<path fill="none" d=" M354,212 L371.5,196.25" stroke="#000000" />
		</g>
		<g>
			<polygon points="363.038 188.5 362.662 191.569 361.262 191.031 " stroke="#000000" />
			<path fill="none" d=" M354,212 L363.038,188.5" stroke="#000000" />
		</g>
		<g>
			<polygon points="336.083 233.5 337.428 230.715 338.58 231.675 " stroke="#000000" />
			<path fill="none" d=" M354,212 L336.083,233.5" stroke="#000000" />
		</g>
		<g>
			<polygon points="339.5 220.529 341.706 218.362 342.466 219.655 " stroke="#000000" />
			<path fill="none" d=" M354,212 L339.5,220.529" stroke="#000000" />
		</g>
		<g>
			<polygon points="363.5 118.375 360.408 118.375 360.771 116.92 " stroke="#000000" />
			<path fill="none" d=" M342,113 L363.5,118.375" stroke="#000000" />
		</g>
		<g>
			<polygon points="356.095 131.5 353.681 129.568 354.874 128.659 " stroke="#000000" />
			<path fill="none" d=" M342,113 L356.095,131.5" stroke="#000000" />
		</g>
		<g>
			<polygon points="317.5 102.111 320.546 102.644 319.937 104.015 " stroke="#000000" />
			<path fill="none" d=" M342,113 L317.5,102.111" stroke="#000000" />
		</g>
		<g>
			<polygon points="325.5 110.395 328.58 110.122 328.346 111.603 " stroke="#000000" />
			<path fill="none" d=" M342,113 L325.5,110.395" stroke="#000000" />
		</g>
		<g>
			<polygon points="288.167 200.5 287.618 197.457 289.115 197.557 " stroke="#000000" />
			<path fill="none" d=" M290,173 L288.167,200.5" stroke="#000000" />
		</g>
		<g>
			<polygon points="303.214 191.5 300.86 189.495 302.081 188.623 " stroke="#000000" />
			<path fill="none" d=" M290,173 L303.214,191.5" stroke="#000000" />
		</g>
		<g>
			<polygon points="279.111 148.5 281.015 150.937 279.644 151.546 " stroke="#000000" />
			<path fill="none" d=" M290,173 L279.111,148.5" stroke="#000000" />
		</g>
		<g>
			<polygon points="296.327 149.5 296.271 152.592 294.823 152.202 " stroke="#000000" />
			<path fill="none" d=" M290,173 L296.327,149.5" stroke="#000000" />
		</g>
		<g>
			<polygon points="404.778 156.5 403.345 159.241 402.224 158.244 " stroke="#000000" />
			<path fill="none" d=" M391,172 L404.778,156.5" stroke="#000000" />
		</g>
		<g>
			<polygon points="396.375 150.5 396.375 153.592 394.92 153.229 " stroke="#000000" />
			<path fill="none" d=" M391,172 L396.375,150.5" stroke="#000000" />
		</g>
		<g>
			<polygon points="375.932 191.5 377.173 188.668 378.36 189.585 " stroke="#000000" />
			<path fill="none" d=" M391,172 L375.932,191.5" stroke="#000000" />
		</g>
		<g>
			<polygon points="380.5 175.231 383.147 173.632 383.588 175.065 " stroke="#000000" />
			<path fill="none" d=" M391,172 L380.5,175.231" stroke="#000000" />
		</g>
		<g>
			<polygon points="402.5 132.306 399.409 132.225 399.81 130.78 " stroke="#000000" />
			<path fill="none" d=" M387,128 L402.5,132.306" stroke="#000000" />
		</g>
		<g>
			<polygon points="395.75 145.5 393.738 143.152 395.079 142.481 " stroke="#000000" />
			<path fill="none" d=" M387,128 L395.75,145.5" stroke="#000000" />
		</g>
		<g>
			<polygon points="368.5 120.071 371.553 120.564 370.962 121.943 " stroke="#000000" />
			<path fill="none" d=" M387,128 L368.5,120.071" stroke="#000000" />
		</g>
		<g>
			<polygon points="376.5 135.269 378.54 132.945 379.393 134.178 " stroke="#000000" />
			<path fill="none" d=" M387,128 L376.5,135.269" stroke="#000000" />
		</g>
		<g>
			<polygon points="364.463 183.5 364.272 180.414 365.747 180.687 " stroke="#000000" />
			<path fill="none" d=" M369,159 L364.463,183.5" stroke="#000000" />
		</g>
		<g>
			<polygon points="376.676 173.5 374.61 171.2 375.936 170.498 " stroke="#000000" />
			<path fill="none" d=" M369,159 L376.676,173.5" stroke="#000000" />
		</g>
		<g>
			<polygon points="359.1 136.5 360.995 138.944 359.622 139.548 " stroke="#000000" />
			<path fill="none" d=" M369,159 L359.1,136.5" stroke="#000000" />
		</g>
		<g>
			<polygon points="373.432 139.5 373.498 142.592 372.036 142.259 " stroke="#000000" />
			<path fill="none" d=" M369,159 L373.432,139.5" stroke="#000000" />
		</g>
		<g>
			<polygon points="405.238 135.5 406.269 138.415 404.776 138.558 " stroke="#000000" />
			<path fill="none" d=" M407,154 L405.238,135.5" stroke="#000000" />
		</g>
		<g>
			<polygon points="399.5 149.5 402.458 150.4 401.687 151.687 " stroke="#000000" />
			<path fill="none" d=" M407,154 L399.5,149.5" stroke="#000000" />
		</g>
		<g>
			<polygon points="398.333 145.5 399.083 142.5 400.407 143.206 " stroke="#000000" />
			<path fill="none" d=" M405,133 L398.333,145.5" stroke="#000000" />
		</g>
		<g>
			<polygon points="366.5 188 369.311 189.288 368.374 190.46 " stroke="#000000" />
			<path fill="none" d=" M374,194 L366.5,188" stroke="#000000" />
		</g>
		<g>
			<polygon points="377.444 178.5 377.526 181.591 376.062 181.266 " stroke="#000000" />
			<path fill="none" d=" M374,194 L377.444,178.5" stroke="#000000" />
		</g>
		<g>
			<polygon points="375.5 177.786 373.495 180.14 372.623 178.919 " stroke="#000000" />
			<path fill="none" d=" M364,186 L375.5,177.786" stroke="#000000" />
		</g>
		<g>
			<polygon points="359.333 131.5 360.083 128.5 361.407 129.206 " stroke="#000000" />
			<path fill="none" d=" M366,119 L359.333,131.5" stroke="#000000" />
		</g>
		<g>
			<polygon points="372.889 134.5 370.985 132.063 372.356 131.454 " stroke="#000000" />
			<path fill="none" d=" M366,119 L372.889,134.5" stroke="#000000" />
		</g>
		<g>
			<polygon points="371.5 136.531 368.413 136.716 368.69 135.241 " stroke="#000000" />
			<path fill="none" d=" M358,134 L371.5,136.531" stroke="#000000" />
		</g>
		<g>
			<polygon points="289.5 270.229 291.515 267.883 292.382 269.107 " stroke="#000000" />
			<path fill="none" d=" M311,255 L289.5,270.229" stroke="#000000" />
		</g>
		<g>
			<polygon points="295.5 254.139 298.537 253.556 298.454 255.054 " stroke="#000000" />
			<path fill="none" d=" M311,255 L295.5,254.139" stroke="#000000" />
		</g>
		<g>
			<polygon points="331.5 238.065 329.665 240.554 328.709 239.398 " stroke="#000000" />
			<path fill="none" d=" M311,255 L331.5,238.065" stroke="#000000" />
		</g>
		<g>
			<polygon points="322.088 240.5 320.862 243.339 319.67 242.427 " stroke="#000000" />
			<path fill="none" d=" M311,255 L322.088,240.5" stroke="#000000" />
		</g>
		<g>
			<polygon points="275.926 257.5 276.265 254.426 277.671 254.947 " stroke="#000000" />
			<path fill="none" d=" M285,233 L275.926,257.5" stroke="#000000" />
		</g>
		<g>
			<polygon points="292.048 251.5 290.279 248.964 291.68 248.43 " stroke="#000000" />
			<path fill="none" d=" M285,233 L292.048,251.5" stroke="#000000" />
		</g>
		<g>
			<polygon points="287.75 205.5 288.198 208.56 286.705 208.41 " stroke="#000000" />
			<path fill="none" d=" M285,233 L287.75,205.5" stroke="#000000" />
		</g>
		<g>
			<polygon points="298.5 219.5 296.909 222.152 295.848 221.091 " stroke="#000000" />
			<path fill="none" d=" M285,233 L298.5,219.5" stroke="#000000" />
		</g>
		<g>
			<polygon points="334.5 221.028 331.432 220.639 331.976 219.241 " stroke="#000000" />
			<path fill="none" d=" M319,215 L334.5,221.028" stroke="#000000" />
		</g>
		<g>
			<polygon points="323.457 235.5 322.086 232.728 323.552 232.409 " stroke="#000000" />
			<path fill="none" d=" M319,215 L323.457,235.5" stroke="#000000" />
		</g>
		<g>
			<polygon points="306.667 196.5 308.955 198.58 307.707 199.412 " stroke="#000000" />
			<path fill="none" d=" M319,215 L306.667,196.5" stroke="#000000" />
		</g>
		<g>
			<polygon points="303.5 216.722 306.399 215.646 306.564 217.136 " stroke="#000000" />
			<path fill="none" d=" M319,215 L303.5,216.722" stroke="#000000" />
		</g>
		<g>
			<polygon points="277.5 262.5 280.152 264.091 279.091 265.152 " stroke="#000000" />
			<path fill="none" d=" M287,272 L277.5,262.5" stroke="#000000" />
		</g>
		<g>
			<polygon points="292.167 256.5 291.929 259.583 290.506 259.109 " stroke="#000000" />
			<path fill="none" d=" M287,272 L292.167,256.5" stroke="#000000" />
		</g>
		<g>
			<polygon points="290.5 254.833 287.891 256.494 287.417 255.071 " stroke="#000000" />
			<path fill="none" d=" M275,260 L290.5,254.833" stroke="#000000" />
		</g>
		<g>
			<polygon points="336.464 224.5 336.569 227.591 335.102 227.276 " stroke="#000000" />
			<path fill="none" d=" M334,236 L336.464,224.5" stroke="#000000" />
		</g>
		<g>
			<polygon points="326.5 237.5 329.295 236.176 329.589 237.647 " stroke="#000000" />
			<path fill="none" d=" M334,236 L326.5,237.5" stroke="#000000" />
		</g>
		<g>
			<polygon points="326.031 235.5 327.341 232.699 328.505 233.645 " stroke="#000000" />
			<path fill="none" d=" M337,222 L326.031,235.5" stroke="#000000" />
		</g>
		<g>
			<polygon points="302.5 195.324 300.2 197.39 299.498 196.064 " stroke="#000000" />
			<path fill="none" d=" M288,203 L302.5,195.324" stroke="#000000" />
		</g>
		<g>
			<polygon points="298.679 214.5 296.088 212.812 297.187 211.791 " stroke="#000000" />
			<path fill="none" d=" M288,203 L298.679,214.5" stroke="#000000" />
		</g>
		<g>
			<polygon points="301.435 214.5 301.21 211.416 302.688 211.673 " stroke="#000000" />
			<path fill="none" d=" M305,194 L301.435,214.5" stroke="#000000" />
		</g>
		<g>
			<polygon points="256.5 87.5645 259.592 87.4937 259.261 88.9569 " stroke="#000000" />
			<path fill="none" d=" M285,94 L256.5,87.5645" stroke="#000000" />
		</g>
		<g>
			<polygon points="268.5 95.7368 271.405 94.6769 271.562 96.1687 " stroke="#000000" />
			<path fill="none" d=" M285,94 L268.5,95.7368" stroke="#000000" />
		</g>
		<g>
			<polygon points="312.5 100.417 309.408 100.465 309.749 99.0046 " stroke="#000000" />
			<path fill="none" d=" M285,94 L312.5,100.417" stroke="#000000" />
		</g>
		<g>
			<polygon points="300.5 100.889 297.454 100.356 298.063 98.9851 " stroke="#000000" />
			<path fill="none" d=" M285,94 L300.5,100.889" stroke="#000000" />
		</g>
		<g>
			<polygon points="247.5 101.375 250.192 102.897 249.158 103.985 " stroke="#000000" />
			<path fill="none" d=" M265,118 L247.5,101.375" stroke="#000000" />
		</g>
		<g>
			<polygon points="265.886 98.5 266.499 101.531 265.001 101.463 " stroke="#000000" />
			<path fill="none" d=" M265,118 L265.886,98.5" stroke="#000000" />
		</g>
		<g>
			<polygon points="276.839 143.5 274.896 141.095 276.256 140.463 " stroke="#000000" />
			<path fill="none" d=" M265,118 L276.839,143.5" stroke="#000000" />
		</g>
		<g>
			<polygon points="283.5 125.929 280.447 125.436 281.038 124.057 " stroke="#000000" />
			<path fill="none" d=" M265,118 L283.5,125.929" stroke="#000000" />
		</g>
		<g>
			<polygon points="320.5 112.188 318.736 114.727 317.748 113.599 " stroke="#000000" />
			<path fill="none" d=" M307,124 L320.5,112.188" stroke="#000000" />
		</g>
		<g>
			<polygon points="303.455 104.5 304.729 107.317 303.253 107.586 " stroke="#000000" />
			<path fill="none" d=" M307,124 L303.455,104.5" stroke="#000000" />
		</g>
		<g>
			<polygon points="298.087 144.5 298.595 141.45 299.971 142.048 " stroke="#000000" />
			<path fill="none" d=" M307,124 L298.087,144.5" stroke="#000000" />
		</g>
		<g>
			<polygon points="288.5 126.643 291.364 125.476 291.576 126.961 " stroke="#000000" />
			<path fill="none" d=" M307,124 L288.5,126.643" stroke="#000000" />
		</g>
		<g>
			<polygon points="246.875 96.5 248.075 93.65 249.275 94.55 " stroke="#000000" />
			<path fill="none" d=" M254,87 L246.875,96.5" stroke="#000000" />
		</g>
		<g>
			<polygon points="263.5 94.125 260.65 92.925 261.55 91.725 " stroke="#000000" />
			<path fill="none" d=" M254,87 L263.5,94.125" stroke="#000000" />
		</g>
		<g>
			<polygon points="263.5 96.3571 260.636 97.5239 260.424 96.0389 " stroke="#000000" />
			<path fill="none" d=" M245,99 L263.5,96.3571" stroke="#000000" />
		</g>
		<g>
			<polygon points="320.778 107.5 318.224 105.756 319.345 104.759 " stroke="#000000" />
			<path fill="none" d=" M315,101 L320.778,107.5" stroke="#000000" />
		</g>
		<g>
			<polygon points="305.5 101.792 308.427 100.795 308.552 102.29 " stroke="#000000" />
			<path fill="none" d=" M315,101 L305.5,101.792" stroke="#000000" />
		</g>
		<g>
			<polygon points="305.5 103 308.564 103.418 308.007 104.811 " stroke="#000000" />
			<path fill="none" d=" M323,110 L305.5,103" stroke="#000000" />
		</g>
		<g>
			<polygon points="294.5 146.868 291.465 147.46 291.544 145.962 " stroke="#000000" />
			<path fill="none" d=" M278,146 L294.5,146.868" stroke="#000000" />
		</g>
		<g>
			<polygon points="284.947 129.5 284.474 132.556 283.092 131.974 " stroke="#000000" />
			<path fill="none" d=" M278,146 L284.947,129.5" stroke="#000000" />
		</g>
		<g>
			<polygon points="287.375 129.5 289.478 131.767 288.164 132.49 " stroke="#000000" />
			<path fill="none" d=" M297,147 L287.375,129.5" stroke="#000000" />
		</g>
	</g>
	<g>
		<rect x="91.5" y="414.5" width="5" height="5" />
	</g>
	<g>
		<rect x="14.5" y="14.5" width="5" height="5" />
	</g>
	<g>
		<rect x="417.5" y="134.5" width="5" height="5" />
	</g>
	<g>
		<rect x="61.5" y="219.5" width="5" height="5" />
	</g>
	<g>
		<rect x="258.5" y="283.5" width="5" height="5" />
	</g>
	<g>
		<rect x="219.5" y="78.5" width="5" height="5" />
	</g>
	<g>
		<rect x="77.5" y="335.5" width="5" height="5" />
	</g>
	<g>
		<rect x="175.5" y="362.5" width="5" height="5" />
	</g>
	<g>
		<rect x="144.5" y="295.5" width="5" height="5" />
	</g>
	<g>
		<rect x="84.5" y="381.5" width="5" height="5" />
	</g>
	<g>
		<rect x="131.5" y="393.5" width="5" height="5" />
	</g>
	<g>
		<rect x="120.5" y="368.5" width="5" height="5" />
	</g>
	<g>
		<rect x="88.5" y="399.5" width="5" height="5" />
	</g>
	<g>
		<rect x="111.5" y="405.5" width="5" height="5" />
	</g>
	<g>
		<rect x="105.5" y="394.5" width="5" height="5" />
	</g>
	<g>
		<rect x="79.5" y="359.5" width="5" height="5" />
	</g>
	<g>
		<rect x="97.5" y="353.5" width="5" height="5" />
	</g>
	<g>
		<rect x="98.5" y="369.5" width="5" height="5" />
	</g>
	<g>
		<rect x="156.5" y="379.5" width="5" height="5" />
	</g>
	<g>
		<rect x="148.5" y="367.5" width="5" height="5" />
	</g>
	<g>
		<rect x="137.5" y="380.5" width="5" height="5" />
	</g>
	<g>
		<rect x="64.5" y="280.5" width="5" height="5" />
	</g>
	<g>
		<rect x="95.5" y="264.5" width="5" height="5" />
	</g>
	<g>
		<rect x="92.5" y="303.5" width="5" height="5" />
	</g>
	<g>
		<rect x="61.5" y="249.5" width="5" height="5" />
	</g>
	<g>
		<rect x="77.5" y="242.5" width="5" height="5" />
	</g>
	<g>
		<rect x="72.5" y="263.5" width="5" height="5" />
	</g>
	<g>
		<rect x="68.5" y="309.5" width="5" height="5" />
	</g>
	<g>
		<rect x="75.5" y="316.5" width="5" height="5" />
	</g>
	<g>
		<rect x="70.5" y="298.5" width="5" height="5" />
	</g>
	<g>
		<rect x="119.5" y="279.5" width="5" height="5" />
	</g>
	<g>
		<rect x="117.5" y="298.5" width="5" height="5" />
	</g>
	<g>
		<rect x="101.5" y="285.5" width="5" height="5" />
	</g>
	<g>
		<rect x="220.5" y="327.5" width="5" height="5" />
	</g>
	<g>
		<rect x="204.5" y="298.5" width="5" height="5" />
	</g>
	<g>
		<rect x="183.5" y="329.5" width="5" height="5" />
	</g>
	<g>
		<rect x="240.5" y="306.5" width="5" height="5" />
	</g>
	<g>
		<rect x="232.5" y="291.5" width="5" height="5" />
	</g>
	<g>
		<rect x="222.5" y="309.5" width="5" height="5" />
	</g>
	<g>
		<rect x="201.5" y="346.5" width="5" height="5" />
	</g>
	<g>
		<rect x="187.5" y="347.5" width="5" height="5" />
	</g>
	<g>
		<rect x="205.5" y="338.5" width="5" height="5" />
	</g>
	<g>
		<rect x="173.5" y="296.5" width="5" height="5" />
	</g>
	<g>
		<rect x="164.5" y="312.5" width="5" height="5" />
	</g>
	<g>
		<rect x="186.5" y="310.5" width="5" height="5" />
	</g>
	<g>
		<rect x="33.5" y="102.5" width="5" height="5" />
	</g>
	<g>
		<rect x="100.5" y="38.5" width="5" height="5" />
	</g>
	<g>
		<rect x="110.5" y="114.5" width="5" height="5" />
	</g>
	<g>
		<rect x="22.5" y="51.5" width="5" height="5" />
	</g>
	<g>
		<rect x="49.5" y="24.5" width="5" height="5" />
	</g>
	<g>
		<rect x="52.5" y="54.5" width="5" height="5" />
	</g>
	<g>
		<rect x="17.5" y="31.5" width="5" height="5" />
	</g>
	<g>
		<rect x="29.5" y="19.5" width="5" height="5" />
	</g>
	<g>
		<rect x="29.5" y="30.5" width="5" height="5" />
	</g>
	<g>
		<rect x="26.5" y="77.5" width="5" height="5" />
	</g>
	<g>
		<rect x="40.5" y="76.5" width="5" height="5" />
	</g>
	<g>
		<rect x="33.5" y="58.5" width="5" height="5" />
	</g>
	<g>
		<rect x="74.5" y="29.5" width="5" height="5" />
	</g>
	<g>
		<rect x="75.5" y="42.5" width="5" height="5" />
	</g>
	<g>
		<rect x="56.5" y="34.5" width="5" height="5" />
	</g>
	<g>
		<rect x="43.5" y="162.5" width="5" height="5" />
	</g>
	<g>
		<rect x="75.5" y="163.5" width="5" height="5" />
	</g>
	<g>
		<rect x="60.5" y="125.5" width="5" height="5" />
	</g>
	<g>
		<rect x="51.5" y="191.5" width="5" height="5" />
	</g>
	<g>
		<rect x="67.5" y="190.5" width="5" height="5" />
	</g>
	<g>
		<rect x="56.5" y="174.5" width="5" height="5" />
	</g>
	<g>
		<rect x="36.5" y="132.5" width="5" height="5" />
	</g>
	<g>
		<rect x="42.5" y="118.5" width="5" height="5" />
	</g>
	<g>
		<rect x="43.5" y="141.5" width="5" height="5" />
	</g>
	<g>
		<rect x="92.5" y="138.5" width="5" height="5" />
	</g>
	<g>
		<rect x="85.5" y="121.5" width="5" height="5" />
	</g>
	<g>
		<rect x="73.5" y="141.5" width="5" height="5" />
	</g>
	<g>
		<rect x="161.5" y="54.5" width="5" height="5" />
	</g>
	<g>
		<rect x="162.5" y="85.5" width="5" height="5" />
	</g>
	<g>
		<rect x="124.5" y="65.5" width="5" height="5" />
	</g>
	<g>
		<rect x="191.5" y="65.5" width="5" height="5" />
	</g>
	<g>
		<rect x="191.5" y="79.5" width="5" height="5" />
	</g>
	<g>
		<rect x="174.5" y="66.5" width="5" height="5" />
	</g>
	<g>
		<rect x="131.5" y="44.5" width="5" height="5" />
	</g>
	<g>
		<rect x="117.5" y="46.5" width="5" height="5" />
	</g>
	<g>
		<rect x="140.5" y="51.5" width="5" height="5" />
	</g>
	<g>
		<rect x="137.5" y="99.5" width="5" height="5" />
	</g>
	<g>
		<rect x="120.5" y="89.5" width="5" height="5" />
	</g>
	<g>
		<rect x="140.5" y="79.5" width="5" height="5" />
	</g>
	<g>
		<rect x="351.5" y="209.5" width="5" height="5" />
	</g>
	<g>
		<rect x="339.5" y="110.5" width="5" height="5" />
	</g>
	<g>
		<rect x="287.5" y="170.5" width="5" height="5" />
	</g>
	<g>
		<rect x="388.5" y="169.5" width="5" height="5" />
	</g>
	<g>
		<rect x="384.5" y="125.5" width="5" height="5" />
	</g>
	<g>
		<rect x="366.5" y="156.5" width="5" height="5" />
	</g>
	<g>
		<rect x="404.5" y="151.5" width="5" height="5" />
	</g>
	<g>
		<rect x="402.5" y="130.5" width="5" height="5" />
	</g>
	<g>
		<rect x="394.5" y="145.5" width="5" height="5" />
	</g>
	<g>
		<rect x="371.5" y="191.5" width="5" height="5" />
	</g>
	<g>
		<rect x="361.5" y="183.5" width="5" height="5" />
	</g>
	<g>
		<rect x="375.5" y="173.5" width="5" height="5" />
	</g>
	<g>
		<rect x="363.5" y="116.5" width="5" height="5" />
	</g>
	<g>
		<rect x="355.5" y="131.5" width="5" height="5" />
	</g>
	<g>
		<rect x="371.5" y="134.5" width="5" height="5" />
	</g>
	<g>
		<rect x="308.5" y="252.5" width="5" height="5" />
	</g>
	<g>
		<rect x="282.5" y="230.5" width="5" height="5" />
	</g>
	<g>
		<rect x="316.5" y="212.5" width="5" height="5" />
	</g>
	<g>
		<rect x="284.5" y="269.5" width="5" height="5" />
	</g>
	<g>
		<rect x="272.5" y="257.5" width="5" height="5" />
	</g>
	<g>
		<rect x="290.5" y="251.5" width="5" height="5" />
	</g>
	<g>
		<rect x="331.5" y="233.5" width="5" height="5" />
	</g>
	<g>
		<rect x="334.5" y="219.5" width="5" height="5" />
	</g>
	<g>
		<rect x="321.5" y="235.5" width="5" height="5" />
	</g>
	<g>
		<rect x="285.5" y="200.5" width="5" height="5" />
	</g>
	<g>
		<rect x="302.5" y="191.5" width="5" height="5" />
	</g>
	<g>
		<rect x="298.5" y="214.5" width="5" height="5" />
	</g>
	<g>
		<rect x="282.5" y="91.5" width="5" height="5" />
	</g>
	<g>
		<rect x="262.5" y="115.5" width="5" height="5" />
	</g>
	<g>
		<rect x="304.5" y="121.5" width="5" height="5" />
	</g>
	<g>
		<rect x="251.5" y="84.5" width="5" height="5" />
	</g>
	<g>
		<rect x="242.5" y="96.5" width="5" height="5" />
	</g>
	<g>
		<rect x="263.5" y="93.5" width="5" height="5" />
	</g>
	<g>
		<rect x="312.5" y="98.5" width="5" height="5" />
	</g>
	<g>
		<rect x="320.5" y="107.5" width="5" height="5" />
	</g>
	<g>
		<rect x="300.5" y="99.5" width="5" height="5" />
	</g>
	<g>
		<rect x="275.5" y="143.5" width="5" height="5" />
	</g>
	<g>
		<rect x="294.5" y="144.5" width="5" height="5" />
	</g>
	<g>
		<rect x="283.5" y="124.5" width="5" height="5" />
	</g>
</svg>
